<svg width="126" height="36" viewBox="0 0 126 36" fill="none" xmlns="http://www.w3.org/2000/svg">
<path d="M2.184 27V10.2H9.312C10.32 10.2 11.224 10.44 12.024 10.92C12.824 11.384 13.456 12.024 13.92 12.84C14.4 13.656 14.64 14.576 14.64 15.6C14.64 16.64 14.4 17.576 13.92 18.408C13.456 19.24 12.824 19.904 12.024 20.4C11.224 20.88 10.32 21.12 9.312 21.12H5.784V27H2.184ZM5.736 17.88H8.904C9.288 17.88 9.632 17.784 9.936 17.592C10.24 17.384 10.48 17.112 10.656 16.776C10.848 16.44 10.944 16.056 10.944 15.624C10.944 15.192 10.848 14.816 10.656 14.496C10.48 14.176 10.24 13.92 9.936 13.728C9.632 13.536 9.288 13.44 8.904 13.44H5.736V17.88Z" fill="#EBEBF0"/>
<path d="M18.4325 28C17.4914 28 16.7285 27.2371 16.7285 26.296V11.944C16.7285 11.0029 17.4914 10.24 18.4325 10.24V10.24C19.3736 10.24 20.1365 11.0029 20.1365 11.944V26.296C20.1365 27.2371 19.3736 28 18.4325 28V28Z" fill="#EBEBF0"/>
<path d="M28.1128 28.24C27.0568 28.24 26.1048 27.952 25.2568 27.376C24.4088 26.8 23.7368 26.016 23.2408 25.024C22.7448 24.032 22.4968 22.896 22.4968 21.616C22.4968 20.336 22.7448 19.2 23.2408 18.208C23.7528 17.216 24.4408 16.44 25.3048 15.88C26.1688 15.32 27.1528 15.04 28.2568 15.04C28.8808 15.04 29.4488 15.136 29.9608 15.328C30.4888 15.504 30.9448 15.752 31.3288 16.072C31.7288 16.392 32.0648 16.76 32.3368 17.176C32.5224 17.4599 32.6708 17.7588 32.7819 18.0726C32.856 18.2817 32.6716 18.4798 32.4527 18.4433V18.4433C32.3027 18.4183 32.1928 18.2885 32.1928 18.1365V16.9801C32.1928 16.0544 32.9511 15.304 33.8768 15.304V15.304C34.8113 15.304 35.5768 16.0615 35.5768 16.996V26.284C35.5768 27.2317 34.8085 28 33.8608 28H33.74C32.859 28 32.1448 27.2858 32.1448 26.4047V25.2479C32.1448 25.0802 32.2724 24.94 32.4394 24.9244V24.9244C32.6671 24.903 32.8437 25.1174 32.7547 25.3281C32.6343 25.6132 32.479 25.8878 32.2888 26.152C32.0008 26.552 31.6408 26.912 31.2088 27.232C30.7928 27.536 30.3208 27.784 29.7928 27.976C29.2648 28.152 28.7048 28.24 28.1128 28.24ZM29.0488 25.288C29.6888 25.288 30.2488 25.136 30.7288 24.832C31.2088 24.528 31.5768 24.104 31.8328 23.56C32.1048 23 32.2408 22.352 32.2408 21.616C32.2408 20.896 32.1048 20.264 31.8328 19.72C31.5768 19.176 31.2088 18.752 30.7288 18.448C30.2488 18.128 29.6888 17.968 29.0488 17.968C28.4248 17.968 27.8728 18.128 27.3928 18.448C26.9288 18.752 26.5608 19.176 26.2888 19.72C26.0168 20.264 25.8808 20.896 25.8808 21.616C25.8808 22.352 26.0168 23 26.2888 23.56C26.5608 24.104 26.9288 24.528 27.3928 24.832C27.8728 25.136 28.4248 25.288 29.0488 25.288Z" fill="#EBEBF0"/>
<path d="M42.2434 33.52C41.4118 33.52 40.8506 32.6705 41.1768 31.9056L42.8988 27.8679C42.9859 27.6636 43.2901 27.7219 43.2955 27.944V27.944C43.301 28.1691 42.9936 28.2395 42.9006 28.0344L38.2463 17.7697C37.7225 16.6144 38.5672 15.304 39.8357 15.304V15.304C40.5368 15.304 41.1698 15.7236 41.4429 16.3693L44.0883 22.624C44.2163 22.896 44.3363 23.216 44.4483 23.584C44.5563 23.881 44.6472 24.1666 44.7211 24.4408C44.7446 24.5283 44.7007 24.6193 44.6184 24.6571V24.6571C44.4632 24.7282 44.2975 24.5709 44.3551 24.4102C44.4102 24.2565 44.4653 24.0931 44.5203 23.92C44.6483 23.568 44.7763 23.192 44.9043 22.792L47.1522 16.4737C47.4017 15.7724 48.0655 15.304 48.8099 15.304V15.304C50.0673 15.304 50.9188 16.5848 50.4322 17.7443L46.1283 28L44.3384 32.524C44.1006 33.1251 43.5197 33.52 42.8732 33.52H42.2434Z" fill="#EBEBF0"/>
<path d="M54.0345 28C53.6236 28 53.2905 27.6669 53.2905 27.256V16.9662C53.2905 16.0482 54.0347 15.304 54.9527 15.304H55.0395C55.8851 15.304 56.5792 15.9729 56.6105 16.8179L56.6439 17.7194C56.6479 17.8258 56.5859 17.9236 56.4881 17.9656V17.9656C56.2867 18.0519 56.0849 17.8654 56.1797 17.6679C56.3595 17.2931 56.6044 16.9451 56.9145 16.624C57.3785 16.144 57.9305 15.76 58.5705 15.472C59.2105 15.184 59.8825 15.04 60.5865 15.04C61.5465 15.04 62.3465 15.232 62.9865 15.616C63.6425 16 64.1305 16.584 64.4505 17.368C64.7865 18.136 64.9545 19.088 64.9545 20.224V26.296C64.9545 27.2371 64.1915 28 63.2505 28V28C62.3094 28 61.5465 27.2371 61.5465 26.296V20.488C61.5465 19.912 61.4665 19.432 61.3065 19.048C61.1465 18.664 60.8985 18.384 60.5625 18.208C60.2425 18.032 59.8425 17.952 59.3625 17.968C58.9785 17.968 58.6185 18.032 58.2825 18.16C57.9625 18.272 57.6825 18.44 57.4425 18.664C57.2185 18.888 57.0345 19.144 56.8905 19.432C56.7625 19.72 56.6985 20.032 56.6985 20.368V26.32C56.6985 27.2478 55.9463 28 55.0185 28V28C54.6505 28 54.3225 28 54.0345 28V28Z" fill="#EBEBF0"/>
<path d="M74.1241 28.24C72.8281 28.24 71.6681 27.96 70.6441 27.4C69.6361 26.824 68.8361 26.04 68.2441 25.048C67.6681 24.056 67.3801 22.92 67.3801 21.64C67.3801 20.36 67.6681 19.224 68.2441 18.232C68.8361 17.24 69.6361 16.464 70.6441 15.904C71.6681 15.328 72.8281 15.04 74.1241 15.04C75.4041 15.04 76.5481 15.328 77.5561 15.904C78.5801 16.464 79.3801 17.24 79.9561 18.232C80.5321 19.224 80.8201 20.36 80.8201 21.64C80.8201 22.92 80.5321 24.056 79.9561 25.048C79.3801 26.04 78.5801 26.824 77.5561 27.4C76.5481 27.96 75.4041 28.24 74.1241 28.24ZM74.1241 25.264C74.7481 25.264 75.3081 25.112 75.8041 24.808C76.3001 24.488 76.6841 24.056 76.9561 23.512C77.2441 22.952 77.3801 22.328 77.3641 21.64C77.3801 20.936 77.2441 20.312 76.9561 19.768C76.6841 19.208 76.3001 18.776 75.8041 18.472C75.3081 18.152 74.7481 17.992 74.1241 17.992C73.4841 17.992 72.9161 18.152 72.4201 18.472C71.9241 18.792 71.5321 19.224 71.2441 19.768C70.9561 20.312 70.8201 20.936 70.8361 21.64C70.8201 22.328 70.9561 22.952 71.2441 23.512C71.5321 24.056 71.9241 24.488 72.4201 24.808C72.9161 25.112 73.4841 25.264 74.1241 25.264Z" fill="#EBEBF0"/>
<path d="M86.3356 28C85.3945 28 84.6316 27.2371 84.6316 26.296V13.792C84.6316 12.8509 85.3945 12.088 86.3356 12.088V12.088C87.2767 12.088 88.0396 12.8509 88.0396 13.792V26.296C88.0396 27.2371 87.2767 28 86.3356 28V28ZM83.7796 18.352C82.938 18.352 82.2556 17.6697 82.2556 16.828V16.828C82.2556 15.9863 82.938 15.304 83.7796 15.304H89.1316C89.9733 15.304 90.6556 15.9863 90.6556 16.828V16.828C90.6556 17.6697 89.9733 18.352 89.1316 18.352H83.7796Z" fill="#EBEBF0"/>
<path d="M98.7598 28.24C97.3838 28.24 96.1758 27.96 95.1358 27.4C94.1118 26.84 93.3118 26.072 92.7358 25.096C92.1758 24.12 91.8958 23 91.8958 21.736C91.8958 20.744 92.0558 19.84 92.3758 19.024C92.6958 18.208 93.1438 17.504 93.7198 16.912C94.2958 16.304 94.9758 15.84 95.7598 15.52C96.5598 15.184 97.4238 15.016 98.3518 15.016C99.2158 15.016 100.016 15.176 100.752 15.496C101.488 15.816 102.12 16.264 102.648 16.84C103.192 17.4 103.608 18.072 103.896 18.856C104.184 19.624 104.312 20.456 104.28 21.352V21.352C104.266 21.939 103.787 22.408 103.199 22.408H94.8596C94.3858 22.408 93.9714 22.0889 93.8503 21.6308V21.6308C93.6752 20.9686 94.1746 20.32 94.8596 20.32H101.183C101.285 20.32 101.34 20.4413 101.272 20.5181V20.5181C101.199 20.5998 101.064 20.5484 101.064 20.439V20.224C101.032 19.792 100.888 19.408 100.632 19.072C100.392 18.72 100.08 18.448 99.6958 18.256C99.3118 18.048 98.8798 17.944 98.3998 17.944C97.6958 17.944 97.0958 18.08 96.5998 18.352C96.1198 18.624 95.7518 19.024 95.4958 19.552C95.2398 20.08 95.1118 20.72 95.1118 21.472C95.1118 22.24 95.2718 22.904 95.5918 23.464C95.9278 24.024 96.3918 24.464 96.9838 24.784C97.5918 25.088 98.3038 25.24 99.1198 25.24C99.6798 25.24 100.192 25.152 100.656 24.976C100.725 24.9496 100.796 24.9203 100.867 24.8881C101.619 24.5477 102.55 24.6321 103.031 25.3032V25.3032C103.455 25.8956 103.372 26.7266 102.752 27.1101C102.586 27.2131 102.415 27.3097 102.24 27.4C101.68 27.672 101.104 27.88 100.512 28.024C99.9198 28.168 99.3358 28.24 98.7598 28.24Z" fill="#EBEBF0"/>
<path d="M111.07 28.24C109.886 28.24 108.83 28.048 107.902 27.664C107.468 27.4734 107.073 27.2502 106.719 26.9943C106.083 26.5356 106.17 25.6256 106.766 25.1166V25.1166C107.359 24.6103 108.234 24.6991 108.908 25.0912C109.087 25.195 109.271 25.2846 109.462 25.36C110.07 25.584 110.678 25.696 111.286 25.696C111.526 25.696 111.742 25.672 111.934 25.624C112.142 25.56 112.318 25.48 112.462 25.384C112.606 25.272 112.71 25.144 112.774 25C112.854 24.84 112.894 24.672 112.894 24.496C112.894 24.144 112.75 23.872 112.462 23.68C112.302 23.584 112.054 23.48 111.718 23.368C111.382 23.24 110.95 23.104 110.422 22.96C109.606 22.752 108.91 22.512 108.334 22.24C107.774 21.952 107.326 21.632 106.99 21.28C106.702 20.944 106.478 20.584 106.318 20.2C106.174 19.8 106.102 19.36 106.102 18.88C106.102 18.304 106.23 17.784 106.486 17.32C106.742 16.84 107.094 16.432 107.542 16.096C108.006 15.76 108.534 15.504 109.126 15.328C109.718 15.136 110.342 15.04 110.998 15.04C111.654 15.04 112.294 15.12 112.918 15.28C113.542 15.44 114.118 15.672 114.646 15.976C114.78 16.0468 114.91 16.1211 115.035 16.1987C115.659 16.5859 115.675 17.4355 115.183 17.98L115.067 18.1075C114.612 18.6105 113.834 18.6326 113.254 18.28V18.28C112.902 18.056 112.534 17.88 112.15 17.752C111.766 17.624 111.422 17.56 111.118 17.56C110.846 17.56 110.598 17.584 110.374 17.632C110.166 17.68 109.99 17.76 109.846 17.872C109.702 17.968 109.59 18.088 109.51 18.232C109.446 18.376 109.414 18.536 109.414 18.712C109.414 18.888 109.454 19.056 109.534 19.216C109.63 19.376 109.758 19.512 109.918 19.624C110.094 19.72 110.35 19.832 110.686 19.96C111.038 20.088 111.51 20.232 112.102 20.392C112.87 20.6 113.518 20.832 114.046 21.088C114.59 21.344 115.022 21.64 115.342 21.976C115.614 22.264 115.814 22.592 115.942 22.96C116.07 23.328 116.134 23.736 116.134 24.184C116.134 24.968 115.91 25.664 115.462 26.272C115.03 26.88 114.43 27.36 113.662 27.712C112.894 28.064 112.03 28.24 111.07 28.24Z" fill="#EBEBF0"/>
<circle cx="122" cy="24.5" r="4" fill="#EBEBF0"/>
</svg>
