<svg width="28" height="28" viewBox="0 0 28 28" fill="none" xmlns="http://www.w3.org/2000/svg">
<path d="M25.584 7.8866L21.6524 23.6716C21.3724 24.85 20.3224 25.6666 19.109 25.6666H3.77901C2.01735 25.6666 0.757364 23.9399 1.28236 22.2482L6.19402 6.47498C6.53235 5.37831 7.54737 4.61987 8.6907 4.61987H23.0407C24.149 4.61987 25.0707 5.29655 25.4557 6.22988C25.6774 6.73155 25.724 7.30326 25.584 7.8866Z" stroke="#EBEBF0" stroke-width="1.5" stroke-miterlimit="10"/>
<path d="M18.666 25.6667H24.2427C25.7477 25.6667 26.926 24.395 26.821 22.89L25.666 7" stroke="#EBEBF0" stroke-width="1.5" stroke-miterlimit="10" stroke-linecap="round" stroke-linejoin="round"/>
<path d="M11.293 7.44326L12.5063 2.40332" stroke="#EBEBF0" stroke-width="1.5" stroke-miterlimit="10" stroke-linecap="round" stroke-linejoin="round"/>
<path d="M19.1094 7.45489L20.206 2.3916" stroke="#EBEBF0" stroke-width="1.5" stroke-miterlimit="10" stroke-linecap="round" stroke-linejoin="round"/>
<path d="M8.98242 14H18.3158" stroke="#EBEBF0" stroke-width="1.5" stroke-miterlimit="10" stroke-linecap="round" stroke-linejoin="round"/>
<path d="M7.81641 18.6667H17.1497" stroke="#EBEBF0" stroke-width="1.5" stroke-miterlimit="10" stroke-linecap="round" stroke-linejoin="round"/>
</svg>
